<svg width="90" height="96" viewBox="0 0 90 96" fill="none" xmlns="http://www.w3.org/2000/svg">
<g filter="url(#filter0_d_66_12)">
<path d="M28.59 59C28.29 59 28.035 58.895 27.825 58.685C27.615 58.475 27.51 58.22 27.51 57.92V28.625C27.51 28.295 27.615 28.025 27.825 27.815C28.035 27.605 28.29 27.5 28.59 27.5H32.055C32.475 27.5 32.775 27.605 32.955 27.815C33.165 27.995 33.3 28.13 33.36 28.22L46.32 48.38V28.625C46.32 28.295 46.41 28.025 46.59 27.815C46.8 27.605 47.07 27.5 47.4 27.5H51.18C51.51 27.5 51.78 27.605 51.99 27.815C52.2 28.025 52.305 28.295 52.305 28.625V57.875C52.305 58.205 52.2 58.475 51.99 58.685C51.78 58.895 51.525 59 51.225 59H47.715C47.295 59 46.995 58.895 46.815 58.685C46.635 58.475 46.5 58.34 46.41 58.28L33.495 38.57V57.92C33.495 58.22 33.39 58.475 33.18 58.685C32.97 58.895 32.7 59 32.37 59H28.59Z" fill="#FEFEFE"/>
</g>
<defs>
<filter id="filter0_d_66_12" x="0.51001" y="0.5" width="88.795" height="95.5" filterUnits="userSpaceOnUse" color-interpolation-filters="sRGB">
<feFlood flood-opacity="0" result="BackgroundImageFix"/>
<feColorMatrix in="SourceAlpha" type="matrix" values="0 0 0 0 0 0 0 0 0 0 0 0 0 0 0 0 0 0 127 0" result="hardAlpha"/>
<feOffset dx="5" dy="5"/>
<feGaussianBlur stdDeviation="16"/>
<feComposite in2="hardAlpha" operator="out"/>
<feColorMatrix type="matrix" values="0 0 0 0 0 0 0 0 0 0.545098 0 0 0 0 0.972549 0 0 0 1 0"/>
<feBlend mode="normal" in2="BackgroundImageFix" result="effect1_dropShadow_66_12"/>
<feBlend mode="normal" in="SourceGraphic" in2="effect1_dropShadow_66_12" result="shape"/>
</filter>
</defs>
</svg>
