<svg width="181" height="97" viewBox="0 0 181 97" fill="none" xmlns="http://www.w3.org/2000/svg">
<g filter="url(#filter0_d_38_2)">
<path d="M31.59 61C31.29 61 31.035 60.895 30.825 60.685C30.615 60.475 30.51 60.22 30.51 59.92V30.625C30.51 30.295 30.615 30.025 30.825 29.815C31.035 29.605 31.29 29.5 31.59 29.5H35.055C35.475 29.5 35.775 29.605 35.955 29.815C36.165 29.995 36.3 30.13 36.36 30.22L49.32 50.38V30.625C49.32 30.295 49.41 30.025 49.59 29.815C49.8 29.605 50.07 29.5 50.4 29.5H54.18C54.51 29.5 54.78 29.605 54.99 29.815C55.2 30.025 55.305 30.295 55.305 30.625V59.875C55.305 60.205 55.2 60.475 54.99 60.685C54.78 60.895 54.525 61 54.225 61H50.715C50.295 61 49.995 60.895 49.815 60.685C49.635 60.475 49.5 60.34 49.41 60.28L36.495 40.57V59.92C36.495 60.22 36.39 60.475 36.18 60.685C35.97 60.895 35.7 61 35.37 61H31.59ZM63.4064 61C63.1064 61 62.8514 60.895 62.6414 60.685C62.4314 60.475 62.3264 60.22 62.3264 59.92V30.625C62.3264 30.295 62.4314 30.025 62.6414 29.815C62.8514 29.605 63.1064 29.5 63.4064 29.5H83.2064C83.5364 29.5 83.8064 29.605 84.0164 29.815C84.2264 30.025 84.3314 30.295 84.3314 30.625V33.595C84.3314 33.895 84.2264 34.15 84.0164 34.36C83.8064 34.57 83.5364 34.675 83.2064 34.675H68.4014V42.64H82.2164C82.5464 42.64 82.8164 42.745 83.0264 42.955C83.2364 43.135 83.3414 43.39 83.3414 43.72V46.51C83.3414 46.84 83.2364 47.11 83.0264 47.32C82.8164 47.5 82.5464 47.59 82.2164 47.59H68.4014V55.825H83.5664C83.8964 55.825 84.1664 55.93 84.3764 56.14C84.5864 56.35 84.6914 56.62 84.6914 56.95V59.92C84.6914 60.22 84.5864 60.475 84.3764 60.685C84.1664 60.895 83.8964 61 83.5664 61H63.4064ZM102.161 61.45C99.4909 61.45 97.1959 61.015 95.2759 60.145C93.3559 59.245 91.8559 57.88 90.7759 56.05C89.6959 54.19 89.1109 51.88 89.0209 49.12C88.9909 47.83 88.9759 46.555 88.9759 45.295C88.9759 44.035 88.9909 42.745 89.0209 41.425C89.1109 38.695 89.7109 36.415 90.8209 34.585C91.9309 32.755 93.4459 31.375 95.3659 30.445C97.3159 29.515 99.5809 29.05 102.161 29.05C104.741 29.05 107.006 29.515 108.956 30.445C110.906 31.375 112.436 32.755 113.546 34.585C114.656 36.415 115.256 38.695 115.346 41.425C115.406 42.745 115.436 44.035 115.436 45.295C115.436 46.555 115.406 47.83 115.346 49.12C115.256 51.88 114.671 54.19 113.591 56.05C112.511 57.88 110.996 59.245 109.046 60.145C107.126 61.015 104.831 61.45 102.161 61.45ZM102.161 56.275C104.111 56.275 105.701 55.705 106.931 54.565C108.161 53.395 108.821 51.505 108.911 48.895C108.971 47.575 109.001 46.36 109.001 45.25C109.001 44.11 108.971 42.895 108.911 41.605C108.851 39.865 108.521 38.455 107.921 37.375C107.351 36.265 106.571 35.47 105.581 34.99C104.591 34.48 103.451 34.225 102.161 34.225C100.901 34.225 99.7759 34.48 98.7859 34.99C97.7959 35.47 97.0009 36.265 96.4009 37.375C95.8309 38.455 95.5159 39.865 95.4559 41.605C95.4259 42.895 95.4109 44.11 95.4109 45.25C95.4109 46.36 95.4259 47.575 95.4559 48.895C95.5459 51.505 96.2059 53.395 97.4359 54.565C98.6659 55.705 100.241 56.275 102.161 56.275ZM122.425 61C122.125 61 121.87 60.895 121.66 60.685C121.45 60.475 121.345 60.22 121.345 59.92V30.625C121.345 30.295 121.45 30.025 121.66 29.815C121.87 29.605 122.125 29.5 122.425 29.5H125.89C126.31 29.5 126.61 29.605 126.79 29.815C127 29.995 127.135 30.13 127.195 30.22L140.155 50.38V30.625C140.155 30.295 140.245 30.025 140.425 29.815C140.635 29.605 140.905 29.5 141.235 29.5H145.015C145.345 29.5 145.615 29.605 145.825 29.815C146.035 30.025 146.14 30.295 146.14 30.625V59.875C146.14 60.205 146.035 60.475 145.825 60.685C145.615 60.895 145.36 61 145.06 61H141.55C141.13 61 140.83 60.895 140.65 60.685C140.47 60.475 140.335 60.34 140.245 60.28L127.33 40.57V59.92C127.33 60.22 127.225 60.475 127.015 60.685C126.805 60.895 126.535 61 126.205 61H122.425Z" fill="#FEFEFE"/>
</g>
<defs>
<filter id="filter0_d_38_2" x="0.51001" y="0.0499954" width="179.63" height="96.4" filterUnits="userSpaceOnUse" color-interpolation-filters="sRGB">
<feFlood flood-opacity="0" result="BackgroundImageFix"/>
<feColorMatrix in="SourceAlpha" type="matrix" values="0 0 0 0 0 0 0 0 0 0 0 0 0 0 0 0 0 0 127 0" result="hardAlpha"/>
<feOffset dx="2" dy="3"/>
<feGaussianBlur stdDeviation="16"/>
<feComposite in2="hardAlpha" operator="out"/>
<feColorMatrix type="matrix" values="0 0 0 0 0 0 0 0 0 0.545098 0 0 0 0 0.972549 0 0 0 1 0"/>
<feBlend mode="normal" in2="BackgroundImageFix" result="effect1_dropShadow_38_2"/>
<feBlend mode="normal" in="SourceGraphic" in2="effect1_dropShadow_38_2" result="shape"/>
</filter>
</defs>
</svg>
